<svg xmlns="http://www.w3.org/2000/svg" viewBox="0 0 200 200">
  <rect width="200" height="200" fill="#0E282F"/>
  <path fill="#FF4800" d="M36.61,62.27c6.66,0,12.06,5.53,12.06,12.34v23.3c0,.77.61,1.39,1.35,1.39h45.52c.75,0,1.35-.62,1.35-1.39v-23.3c0-13.63-10.8-24.68-24.12-24.68H11.98c-.75,0-1.35.62-1.35,1.39v9.57c0,.77.61,1.39,1.35,1.39h24.64Z"/>
  <rect fill="#EDF3ED" x="48.65" y="104.94" width="48.25" height="60.13" rx="1.52"/>
  <path fill="#EDF3ED" d="M188.02,62.27c.75,0,1.35-.62,1.35-1.39v-9.57c0-.76-.6-1.39-1.35-1.39h-60.81c-13.32,0-24.12,11.05-24.12,24.68v89.44c0,.76.6,1.39,1.35,1.39h45.52c.75,0,1.35-.62,1.35-1.39V74.61c0-6.82,5.4-12.34,12.06-12.34h24.64Z"/>
</svg>
